# xmcd CD database file
#
# Track frame offsets:
#	150
#	13960
#	26997
#	40039
#	47672
#	62192
#	76107
#	87710
#	107925
#	122160
#
# Disc length: 1786 seconds
#
# Revision: 0
# Processed by: cddbd v1.5.1PL0 Copyright (c) Steve Scherf et al.
# Submitted via: CDex 1.51
#
DISCID=8706f80a
DTITLE=Various Artist - Great Country Hymns Disc 3
DYEAR=2003
DGENRE=Country
TTITLE0=Dolly Parton/Comin' For To Carry Me Home
TTITLE1=Oak Ridge Boys/Go Tell It On The Mountain
TTITLE2=Connie Smith and Nat Stuckey/If God Is Dead Who's That Living In My Soul
TTITLE3=Stamps-Baxter Quartet/I'll Meet You By The River
TTITLE4=Dean Dillon/Jesus Let Me Slide
TTITLE5=George Beverly Shea/Just A Closer Walk With Thee
TTITLE6=Willie Nelson/One Day At A Time
TTITLE7=Razzy Bailey/Peace On Earth (A Song For All Seasons)
TTITLE8=Paul Overstreet/Richest Man On Earth
TTITLE9=Jim Ed Brown/Scarlet Ribbons (For Her Hair)
EXTD=YEAR: 2003
EXTT0=
EXTT1=
EXTT2=
EXTT3=
EXTT4=
EXTT5=
EXTT6=
EXTT7=
EXTT8=
EXTT9=
PLAYORDER=
